<svg width="16" height="17" viewBox="0 0 16 17" fill="none" xmlns="http://www.w3.org/2000/svg">
<path d="M12.2835 1.42857H3.71205C2.29241 1.42857 1.14062 2.58036 1.14062 4V12.5714C1.14062 13.9911 2.29241 15.1429 3.71205 15.1429H8.46205V9.83036H6.67634V7.75893H8.46205V6.23214C8.46205 4.46428 9.55134 3.5 11.1317 3.5C11.8817 3.5 12.5335 3.55357 12.721 3.58036V5.42857L11.6317 5.4375C10.7656 5.4375 10.6049 5.83928 10.6049 6.4375V7.75893H12.6496L12.3817 9.83036H10.6049V15.1429H12.2835C13.7031 15.1429 14.8549 13.9911 14.8549 12.5714V4C14.8549 2.58036 13.7031 1.42857 12.2835 1.42857Z" fill="#D7B399"/>
<path d="M8.46205 15.1429V16.1429H9.46205V15.1429H8.46205ZM8.46205 9.83036H9.46205V8.83036H8.46205V9.83036ZM6.67634 9.83036H5.67634V10.8304H6.67634V9.83036ZM6.67634 7.75893V6.75893H5.67634V7.75893H6.67634ZM8.46205 7.75893V8.75893H9.46205V7.75893H8.46205ZM12.721 3.58036H13.721V2.71306L12.8624 2.59041L12.721 3.58036ZM12.721 5.42857L12.7292 6.42854L13.721 6.42041V5.42857H12.721ZM11.6317 5.4375L11.6317 6.43753L11.6399 6.43747L11.6317 5.4375ZM10.6049 7.75893H9.60491V8.75893H10.6049V7.75893ZM12.6496 7.75893L13.6413 7.88717L13.7872 6.75893H12.6496V7.75893ZM12.3817 9.83036V10.8304H13.2607L13.3734 9.9586L12.3817 9.83036ZM10.6049 9.83036V8.83036H9.60491V9.83036H10.6049ZM10.6049 15.1429H9.60491V16.1429H10.6049V15.1429ZM12.2835 0.428571H3.71205V2.42857H12.2835V0.428571ZM3.71205 0.428571C1.74013 0.428571 0.140625 2.02807 0.140625 4H2.14062C2.14062 3.13264 2.8447 2.42857 3.71205 2.42857V0.428571ZM0.140625 4V12.5714H2.14062V4H0.140625ZM0.140625 12.5714C0.140625 14.5434 1.74013 16.1429 3.71205 16.1429V14.1429C2.8447 14.1429 2.14062 13.4388 2.14062 12.5714H0.140625ZM3.71205 16.1429H8.46205V14.1429H3.71205V16.1429ZM9.46205 15.1429V9.83036H7.46205V15.1429H9.46205ZM8.46205 8.83036H6.67634V10.8304H8.46205V8.83036ZM7.67634 9.83036V7.75893H5.67634V9.83036H7.67634ZM6.67634 8.75893H8.46205V6.75893H6.67634V8.75893ZM9.46205 7.75893V6.23214H7.46205V7.75893H9.46205ZM9.46205 6.23214C9.46205 5.55745 9.66496 5.15257 9.9054 4.91613C10.1496 4.676 10.5441 4.5 11.1317 4.5V2.5C10.1389 2.5 9.19862 2.80615 8.50309 3.49011C7.80379 4.17779 7.46205 5.13897 7.46205 6.23214H9.46205ZM11.1317 4.5C11.8506 4.5 12.4526 4.55217 12.5796 4.57031L12.8624 2.59041C12.6143 2.55497 11.9128 2.5 11.1317 2.5V4.5ZM11.721 3.58036V5.42857H13.721V3.58036H11.721ZM12.7128 4.4286L11.6235 4.43753L11.6399 6.43747L12.7292 6.42854L12.7128 4.4286ZM11.6317 4.4375C11.0728 4.4375 10.4558 4.56473 10.0305 5.06679C9.63671 5.53165 9.60491 6.10098 9.60491 6.4375H11.6049C11.6049 6.38426 11.6067 6.3432 11.6096 6.31161C11.6124 6.27996 11.6157 6.26316 11.6171 6.25748C11.6183 6.25214 11.6166 6.26197 11.6075 6.28142C11.6029 6.29129 11.5965 6.30341 11.5879 6.317C11.5792 6.33065 11.5688 6.34504 11.5565 6.35955C11.5442 6.37408 11.5309 6.38771 11.5168 6.40015C11.5028 6.41258 11.489 6.4229 11.4763 6.43129C11.4505 6.44827 11.433 6.45463 11.4308 6.45538C11.4293 6.45588 11.4428 6.45111 11.4768 6.44637C11.5109 6.44163 11.5613 6.4375 11.6317 6.4375V4.4375ZM9.60491 6.4375V7.75893H11.6049V6.4375H9.60491ZM10.6049 8.75893H12.6496V6.75893H10.6049V8.75893ZM11.6578 7.63069L11.39 9.70211L13.3734 9.9586L13.6413 7.88717L11.6578 7.63069ZM12.3817 8.83036H10.6049V10.8304H12.3817V8.83036ZM9.60491 9.83036V15.1429H11.6049V9.83036H9.60491ZM10.6049 16.1429H12.2835V14.1429H10.6049V16.1429ZM12.2835 16.1429C14.2554 16.1429 15.8549 14.5434 15.8549 12.5714H13.8549C13.8549 13.4388 13.1508 14.1429 12.2835 14.1429V16.1429ZM15.8549 12.5714V4H13.8549V12.5714H15.8549ZM15.8549 4C15.8549 2.02807 14.2554 0.428571 12.2835 0.428571V2.42857C13.1508 2.42857 13.8549 3.13264 13.8549 4H15.8549Z" fill="black"/>
</svg>
