<svg width="28" height="21" viewBox="0 0 28 21" fill="none" xmlns="http://www.w3.org/2000/svg">
<g filter="url(#filter0_d)">
<path d="M22.5458 1.92857C22.5458 1.92857 22.4208 1.57143 21.644 1.66964L19.0725 1.6875C18.8761 1.66071 18.7333 1.74107 18.7333 1.74107C18.7333 1.74107 18.5815 1.82143 18.51 2.01786C18.0904 3.09821 17.5547 4.02679 17.5547 4.02679C16.4118 5.97321 15.9475 6.08036 15.76 5.95536C15.3225 5.67857 15.4386 4.83036 15.4386 4.22321C15.4386 2.33036 15.7243 1.54464 14.8761 1.33928C14.5993 1.27678 14.394 1.23214 13.6708 1.22321C12.7511 1.21428 11.9743 1.22321 11.5368 1.4375C11.2422 1.58036 11.019 1.90178 11.1529 1.91964C11.3225 1.94643 11.7065 2.02678 11.9118 2.30357C11.9118 2.30357 12.135 2.66964 12.1708 3.47321C12.269 5.69643 11.8136 5.97321 11.8136 5.97321C11.4654 6.16071 10.8583 5.84821 9.9654 4.00893C9.9654 4.00893 9.44755 3.09821 9.04576 2.09821C8.97433 1.91071 8.83147 1.8125 8.83147 1.8125C8.83147 1.8125 8.67076 1.6875 8.43862 1.65178L5.99219 1.66964C5.61719 1.66964 5.48326 1.83928 5.48326 1.83928C5.48326 1.83928 5.34933 1.98214 5.47433 2.27678C7.38504 6.76786 9.56362 9.01786 9.56362 9.01786C9.56362 9.01786 11.5547 11.0982 13.8136 10.9554H14.8404C15.1529 10.9286 15.3136 10.7589 15.3136 10.7589C15.3136 10.7589 15.4565 10.5982 15.4475 10.3036C15.4297 8.92857 16.0725 8.72321 16.0725 8.72321C16.6975 8.52679 17.5011 10.0536 18.3583 10.6429C18.3583 10.6429 19.01 11.0893 19.5011 10.9911L21.7868 10.9554C22.9922 10.9464 22.4208 9.94643 22.4208 9.94643C22.3761 9.86607 22.0904 9.25 20.7154 7.97321C19.2868 6.64286 19.4743 6.85714 21.2065 4.55357C22.26 3.15179 22.6797 2.29464 22.5458 1.92857Z" fill="#D7B399"/>
<path d="M22.5458 1.92857L21.6018 2.25895L21.6066 2.27215L22.5458 1.92857ZM21.644 1.66964L21.6509 2.66962L21.7104 2.66921L21.7694 2.66174L21.644 1.66964ZM19.0725 1.6875L18.9374 2.67833L19.0081 2.68797L19.0795 2.68748L19.0725 1.6875ZM18.7333 1.74107L19.2011 2.62486L19.2124 2.6189L19.2235 2.61265L18.7333 1.74107ZM18.51 2.01786L19.4422 2.37993L19.4461 2.36981L19.4498 2.3596L18.51 2.01786ZM17.5547 4.02679L18.4171 4.53313L18.4209 4.52651L17.5547 4.02679ZM15.76 5.95536L16.3147 5.12331L16.3048 5.11667L16.2947 5.11028L15.76 5.95536ZM14.8761 1.33928L15.1114 0.367364L15.1039 0.365546L15.0964 0.363844L14.8761 1.33928ZM13.6708 1.22321L13.6831 0.223287L13.6805 0.223261L13.6708 1.22321ZM11.5368 1.4375L11.9731 2.33732L11.9767 2.33556L11.5368 1.4375ZM11.1529 1.91964L11.3089 0.93188L11.297 0.930004L11.2851 0.928415L11.1529 1.91964ZM11.9118 2.30357L12.7656 1.78296L12.742 1.74419L12.7149 1.70772L11.9118 2.30357ZM12.1708 3.47321L13.1698 3.42908L13.1698 3.42881L12.1708 3.47321ZM11.8136 5.97321L12.2877 6.85369L12.3107 6.8413L12.333 6.82774L11.8136 5.97321ZM9.9654 4.00893L10.865 3.57223L10.8508 3.54293L10.8347 3.51463L9.9654 4.00893ZM9.04576 2.09821L8.11127 2.45421L8.11449 2.46265L8.11786 2.47103L9.04576 2.09821ZM8.83147 1.8125L8.21753 2.60185L8.24073 2.61989L8.26494 2.63654L8.83147 1.8125ZM8.43862 1.65178L8.59068 0.663414L8.51146 0.651227L8.43132 0.651812L8.43862 1.65178ZM5.99219 1.66964L5.99219 2.66967L5.99949 2.66962L5.99219 1.66964ZM5.48326 1.83928L6.2128 2.52323L6.24183 2.49225L6.26814 2.45893L5.48326 1.83928ZM5.47433 2.27678L4.55375 2.66734L4.55415 2.66827L5.47433 2.27678ZM9.56362 9.01786L10.2861 8.32641L10.282 8.32225L9.56362 9.01786ZM13.8136 10.9554V9.95536H13.782L13.7505 9.95735L13.8136 10.9554ZM14.8404 10.9554V11.9554H14.8832L14.9258 11.9517L14.8404 10.9554ZM15.3136 10.7589L16.0396 11.4467L16.0505 11.4352L16.061 11.4233L15.3136 10.7589ZM15.4475 10.3036L14.4476 10.3166L14.4477 10.3252L14.448 10.3339L15.4475 10.3036ZM16.0725 8.72321L15.7727 7.76921L15.7682 7.77064L16.0725 8.72321ZM18.3583 10.6429L17.7917 11.4669L17.7932 11.4679L18.3583 10.6429ZM19.5011 10.9911L19.4855 9.99119L19.3944 9.99262L19.305 10.0105L19.5011 10.9911ZM21.7868 10.9554L21.7794 9.95535L21.7712 9.95548L21.7868 10.9554ZM22.4208 9.94643L21.5465 10.4321L21.5525 10.4426L22.4208 9.94643ZM20.7154 7.97321L20.0339 8.70503L20.035 8.70601L20.7154 7.97321ZM21.2065 4.55357L22.0057 5.15456L22.0059 5.15439L21.2065 4.55357ZM22.5458 1.92857C23.4896 1.59822 23.4893 1.59728 23.489 1.59635C23.4888 1.59603 23.4885 1.59509 23.4883 1.59446C23.4878 1.5932 23.4874 1.59194 23.4869 1.59066C23.486 1.58811 23.4851 1.58552 23.4841 1.5829C23.4822 1.57766 23.4802 1.57229 23.478 1.5668C23.4738 1.55581 23.4691 1.54431 23.464 1.53235C23.4538 1.50843 23.4418 1.48258 23.4277 1.45523C23.3995 1.4005 23.3628 1.33954 23.3153 1.27598C23.2188 1.14673 23.0835 1.01451 22.9007 0.904783C22.5281 0.681229 22.0605 0.609019 21.5185 0.677541L21.7694 2.66174C22.0042 2.63205 21.9876 2.68931 21.8717 2.61977C21.8171 2.58705 21.7616 2.53798 21.7128 2.47262C21.6892 2.44101 21.6684 2.40719 21.65 2.37161C21.6409 2.35382 21.6323 2.33556 21.6243 2.31682C21.6203 2.30745 21.6164 2.29794 21.6127 2.2883C21.6108 2.28348 21.609 2.27862 21.6072 2.27372C21.6063 2.27128 21.6054 2.26882 21.6045 2.26635C21.6041 2.26512 21.6037 2.26388 21.6032 2.26264C21.603 2.26203 21.6027 2.26109 21.6026 2.26078C21.6022 2.25985 21.6019 2.25892 22.5458 1.92857ZM21.637 0.669667L19.0656 0.687524L19.0795 2.68748L21.6509 2.66962L21.637 0.669667ZM19.2077 0.69667C18.9444 0.660771 18.7197 0.696793 18.5616 0.740722C18.4816 0.762942 18.4144 0.788332 18.3619 0.810999C18.3355 0.82241 18.3123 0.833363 18.2926 0.843241C18.2827 0.848189 18.2736 0.852895 18.2653 0.857285C18.2612 0.859481 18.2573 0.861602 18.2536 0.863639C18.2517 0.864657 18.2499 0.865655 18.2481 0.866631C18.2472 0.867119 18.2464 0.867601 18.2455 0.868079C18.2451 0.868317 18.2447 0.868554 18.2443 0.86879C18.244 0.868908 18.2437 0.869084 18.2436 0.869143C18.2433 0.869318 18.243 0.869493 18.7333 1.74107C19.2235 2.61265 19.2232 2.61282 19.2229 2.613C19.2228 2.61305 19.2225 2.61323 19.2223 2.61334C19.2219 2.61358 19.2215 2.6138 19.221 2.61403C19.2202 2.61449 19.2194 2.61494 19.2186 2.61539C19.217 2.61629 19.2154 2.61718 19.2138 2.61804C19.2106 2.61978 19.2075 2.62145 19.2045 2.62306C19.1984 2.62629 19.1926 2.6293 19.187 2.6321C19.1758 2.63769 19.1653 2.64257 19.1554 2.64687C19.1359 2.65531 19.1166 2.66228 19.0969 2.66776C19.0593 2.67821 19.0043 2.68744 18.9374 2.67833L19.2077 0.69667ZM18.7333 1.74107C18.2654 0.857284 18.265 0.857471 18.2647 0.857658C18.2645 0.857721 18.2642 0.85791 18.264 0.858036C18.2635 0.858289 18.263 0.858544 18.2625 0.858801C18.2616 0.859316 18.2606 0.859839 18.2596 0.86037C18.2576 0.861434 18.2556 0.862532 18.2535 0.863665C18.2494 0.865932 18.245 0.868341 18.2405 0.870896C18.2314 0.876003 18.2216 0.881707 18.2111 0.88803C18.1901 0.900653 18.1661 0.915897 18.14 0.933966C18.0881 0.969848 18.0252 1.01843 17.9588 1.08167C17.8263 1.20786 17.6698 1.40235 17.5703 1.67611L19.4498 2.3596C19.4217 2.43694 19.3768 2.49303 19.3381 2.52994C19.3186 2.54854 19.2981 2.56475 19.2769 2.57943C19.2661 2.58689 19.2545 2.59432 19.2421 2.60178C19.2359 2.60553 19.2294 2.60931 19.2226 2.61315C19.2192 2.61506 19.2157 2.617 19.2121 2.61895C19.2104 2.61992 19.2085 2.6209 19.2067 2.62189C19.2058 2.62238 19.2049 2.62288 19.2039 2.62337C19.2035 2.62362 19.203 2.62386 19.2026 2.62411C19.2023 2.62424 19.202 2.62442 19.2019 2.62449C19.2015 2.62467 19.2011 2.62486 18.7333 1.74107ZM17.5779 1.65578C17.3839 2.15531 17.1604 2.62596 16.9833 2.97483C16.8953 3.1482 16.82 3.28903 16.7674 3.38539C16.7411 3.43351 16.7205 3.4704 16.7069 3.49454C16.7001 3.50661 16.6951 3.51548 16.692 3.52097C16.6904 3.52371 16.6893 3.5256 16.6888 3.52663C16.6885 3.52714 16.6883 3.52743 16.6882 3.52751C16.6882 3.52754 16.6882 3.52753 16.6883 3.52745C16.6883 3.52742 16.6883 3.52736 16.6884 3.5273C16.6884 3.52727 16.6884 3.52721 16.6884 3.52719C16.6885 3.52713 16.6885 3.52706 17.5547 4.02679C18.4209 4.52651 18.4209 4.52643 18.421 4.52636C18.421 4.52633 18.421 4.52625 18.4211 4.52619C18.4211 4.52607 18.4212 4.52593 18.4213 4.52578C18.4215 4.52548 18.4217 4.52512 18.4219 4.52471C18.4224 4.52388 18.423 4.52283 18.4237 4.52155C18.4252 4.51899 18.4272 4.51554 18.4296 4.51122C18.4346 4.50258 18.4414 4.49044 18.4501 4.47501C18.4675 4.44415 18.492 4.40005 18.5225 4.34425C18.5835 4.23273 18.6683 4.0739 18.7667 3.88008C18.9624 3.49457 19.2166 2.96076 19.4422 2.37993L17.5779 1.65578ZM16.6923 3.52046C16.1329 4.47329 15.7939 4.87699 15.6297 5.025C15.5478 5.09881 15.5766 5.04669 15.7065 5.01282C15.8825 4.96695 16.1139 4.98938 16.3147 5.12331L15.2053 6.78741C15.5 6.98383 15.8597 7.03975 16.2111 6.94812C16.5165 6.86849 16.7681 6.69137 16.9686 6.51071C17.3691 6.14979 17.8336 5.52671 18.417 4.53311L16.6923 3.52046ZM16.2947 5.11028C16.4102 5.18338 16.4506 5.2739 16.4551 5.28525C16.4558 5.28709 16.4411 5.24627 16.4321 5.13384C16.4235 5.02598 16.4232 4.89653 16.427 4.73498C16.4304 4.59459 16.4386 4.38984 16.4386 4.22321H14.4386C14.4386 4.4005 14.4093 4.92672 14.4384 5.2925C14.4662 5.64215 14.567 6.38391 15.2254 6.80044L16.2947 5.11028ZM16.4386 4.22321C16.4386 3.77348 16.4555 3.39018 16.4692 3.04235C16.4822 2.71323 16.4951 2.37074 16.4726 2.07322C16.4505 1.77971 16.387 1.38813 16.141 1.03683C15.8706 0.650559 15.486 0.458044 15.1114 0.367364L14.6408 2.31121C14.6904 2.3232 14.5881 2.30591 14.5027 2.18387C14.4417 2.09681 14.4658 2.05846 14.4783 2.22365C14.4904 2.38484 14.4849 2.60653 14.4708 2.96351C14.4574 3.30178 14.4386 3.72652 14.4386 4.22321H16.4386ZM15.0964 0.363844C14.7465 0.284835 14.4711 0.233019 13.6831 0.22329L13.6584 2.22314C14.0038 2.2274 14.1985 2.24002 14.3277 2.25473C14.4474 2.26837 14.5241 2.28497 14.6559 2.31473L15.0964 0.363844ZM13.6805 0.223261C13.2236 0.218825 12.759 0.217944 12.3465 0.249579C11.953 0.279754 11.4925 0.345725 11.097 0.539437L11.9767 2.33556C12.0187 2.31499 12.1653 2.26935 12.4995 2.24372C12.8146 2.21955 13.1983 2.21867 13.6611 2.22317L13.6805 0.223261ZM11.1006 0.537685C10.799 0.683898 10.5492 0.906982 10.3863 1.12261C10.3193 1.21133 10.1833 1.40599 10.1329 1.66831C10.1073 1.80168 10.0775 2.09192 10.2499 2.39458C10.4489 2.74392 10.7799 2.87876 11.0207 2.91087L11.2851 0.928415C11.4924 0.956056 11.8011 1.07695 11.9878 1.40473C12.1479 1.68584 12.1159 1.94692 12.097 2.04542C12.0754 2.15825 12.0376 2.23449 12.0223 2.26346C12.0038 2.29868 11.9881 2.32017 11.982 2.32828C11.9709 2.34302 11.98 2.33396 11.9731 2.33731L11.1006 0.537685ZM10.9969 2.90741C11.0206 2.91114 11.0466 2.91596 11.0737 2.92265C11.1013 2.9295 11.1246 2.93702 11.1426 2.94432C11.1611 2.95182 11.1655 2.9557 11.1602 2.95204C11.1542 2.94787 11.1328 2.93183 11.1087 2.89942L12.7149 1.70772C12.4639 1.36934 12.1347 1.18861 11.8954 1.09139C11.6507 0.992002 11.4271 0.950542 11.3089 0.93188L10.9969 2.90741ZM11.9118 2.30357C11.058 2.82418 11.0578 2.8238 11.0576 2.82343C11.0575 2.8233 11.0573 2.82293 11.0571 2.82268C11.0568 2.82219 11.0565 2.8217 11.0562 2.82122C11.0557 2.82026 11.0551 2.81931 11.0545 2.81838C11.0534 2.81653 11.0524 2.81476 11.0514 2.81307C11.0494 2.80968 11.0476 2.80662 11.046 2.80388C11.0429 2.79839 11.0406 2.7942 11.0391 2.79132C11.036 2.78555 11.0359 2.78506 11.0382 2.78998C11.0427 2.79975 11.0565 2.83154 11.0738 2.88659C11.1081 2.99586 11.1577 3.20251 11.1717 3.51761L13.1698 3.42881C13.1481 2.94034 13.0682 2.56217 12.982 2.28751C12.939 2.1506 12.8948 2.04065 12.8563 1.95667C12.8371 1.91472 12.8193 1.87934 12.8039 1.85042C12.7962 1.83596 12.7891 1.82312 12.7827 1.81188C12.7795 1.80626 12.7764 1.80104 12.7736 1.79622C12.7722 1.79381 12.7708 1.79151 12.7695 1.7893C12.7688 1.78819 12.7681 1.78711 12.7675 1.78605C12.7672 1.78553 12.7669 1.78501 12.7666 1.78449C12.7664 1.78423 12.7662 1.78385 12.7661 1.78372C12.7659 1.78334 12.7656 1.78296 11.9118 2.30357ZM11.1717 3.51735C11.2183 4.57172 11.128 5.0752 11.0693 5.27609C11.0411 5.37217 11.0266 5.37665 11.0556 5.33396C11.0705 5.31204 11.0962 5.27852 11.1362 5.23974C11.156 5.22043 11.1791 5.20014 11.2056 5.1796C11.2188 5.16934 11.2328 5.15908 11.2476 5.14888C11.255 5.14379 11.2625 5.13872 11.2703 5.13368C11.2742 5.13116 11.2781 5.12865 11.2821 5.12615C11.2841 5.12491 11.2861 5.12366 11.2881 5.12242C11.2891 5.12179 11.2906 5.12086 11.2912 5.12055C11.2927 5.11962 11.2942 5.11869 11.8136 5.97321C12.333 6.82774 12.3346 6.82681 12.3361 6.82587C12.3366 6.82556 12.3381 6.82462 12.3391 6.82399C12.3412 6.82273 12.3432 6.82145 12.3453 6.82017C12.3494 6.8176 12.3535 6.81499 12.3576 6.81233C12.3658 6.80701 12.374 6.80151 12.3823 6.79582C12.3988 6.78444 12.4153 6.77236 12.4319 6.75953C12.4649 6.73385 12.4977 6.70544 12.5298 6.67421C12.5943 6.61162 12.6548 6.53911 12.7109 6.4565C12.8221 6.29243 12.9153 6.08876 12.9888 5.83775C13.1331 5.34444 13.2214 4.59792 13.1698 3.42908L11.1717 3.51735ZM11.3395 5.09274C11.4833 5.01534 11.6417 5.00624 11.759 5.03723C11.8498 5.06125 11.854 5.09233 11.7737 5.01785C11.6042 4.86065 11.2943 4.45656 10.865 3.57223L9.0658 4.44563C9.52936 5.40058 9.9695 6.07238 10.4138 6.48438C10.8623 6.90021 11.5652 7.24272 12.2877 6.85369L11.3395 5.09274ZM9.9654 4.00893C10.8347 3.51463 10.8347 3.51468 10.8348 3.51473C10.8348 3.51475 10.8348 3.51479 10.8348 3.51482C10.8348 3.51487 10.8349 3.51491 10.8349 3.51493C10.8349 3.51498 10.8349 3.51497 10.8349 3.51491C10.8348 3.51479 10.8346 3.51445 10.8343 3.51389C10.8337 3.51279 10.8325 3.51083 10.831 3.50804C10.8278 3.50246 10.8229 3.49357 10.8162 3.48157C10.8028 3.45757 10.7827 3.42116 10.7571 3.37394C10.7058 3.2794 10.6326 3.14208 10.5473 2.9746C10.3755 2.63738 10.1597 2.18831 9.97366 1.7254L8.11786 2.47103C8.33365 3.00812 8.57767 3.51441 8.76523 3.88254C8.85959 4.06774 8.94101 4.2206 8.99934 4.32807C9.02854 4.38185 9.05203 4.42441 9.06856 4.45411C9.07682 4.46897 9.08336 4.48062 9.088 4.48887C9.09032 4.493 9.09217 4.49628 9.09353 4.49868C9.09421 4.49988 9.09477 4.50086 9.0952 4.50162C9.09541 4.502 9.0956 4.50232 9.09575 4.50259C9.09583 4.50273 9.09589 4.50285 9.09595 4.50295C9.09598 4.50301 9.09602 4.50308 9.09604 4.5031C9.09608 4.50317 9.09611 4.50323 9.9654 4.00893ZM9.98025 1.74222C9.88697 1.49735 9.75082 1.31876 9.64402 1.20394C9.5894 1.14523 9.53824 1.09864 9.49654 1.06376C9.47554 1.04619 9.45646 1.03119 9.43995 1.01874C9.43168 1.0125 9.42401 1.00687 9.41701 1.00183C9.4135 0.999311 9.41016 0.996937 9.40699 0.99471C9.40541 0.993596 9.40387 0.992518 9.40237 0.991476C9.40162 0.990955 9.40088 0.990443 9.40015 0.98994C9.39979 0.989689 9.39943 0.989439 9.39907 0.989192C9.39889 0.989069 9.39862 0.988885 9.39853 0.988823C9.39827 0.98864 9.398 0.988458 8.83147 1.8125C8.26494 2.63654 8.26468 2.63636 8.26442 2.63618C8.26433 2.63612 8.26407 2.63594 8.26389 2.63582C8.26354 2.63558 8.26319 2.63534 8.26285 2.6351C8.26215 2.63462 8.26147 2.63414 8.26079 2.63367C8.25943 2.63272 8.25809 2.63179 8.25678 2.63086C8.25415 2.62902 8.25162 2.62722 8.24919 2.62547C8.24431 2.62196 8.23978 2.61862 8.23555 2.61543C8.22713 2.60908 8.21978 2.60322 8.21328 2.59779C8.2006 2.58718 8.18962 2.57687 8.17964 2.56615C8.16212 2.54731 8.13312 2.51157 8.11127 2.45421L9.98025 1.74222ZM8.83147 1.8125C9.44541 1.02315 9.4452 1.02298 9.44498 1.02281C9.4449 1.02275 9.44469 1.02258 9.44454 1.02247C9.44424 1.02224 9.44395 1.02201 9.44364 1.02177C9.44304 1.02131 9.44243 1.02083 9.4418 1.02035C9.44055 1.01938 9.43924 1.01838 9.43789 1.01735C9.43518 1.01528 9.43227 1.01308 9.42916 1.01075C9.42294 1.00609 9.41592 1.00092 9.40811 0.995303C9.39252 0.984085 9.37364 0.970973 9.35166 0.956542C9.308 0.927869 9.25049 0.892914 9.18074 0.856915C9.04483 0.786769 8.84209 0.702094 8.59068 0.663414L8.28656 2.64016C8.2755 2.63845 8.26895 2.6363 8.26685 2.63556C8.26473 2.63482 8.26389 2.63438 8.26345 2.63416C8.2629 2.63387 8.26008 2.6324 8.25381 2.62828C8.25052 2.62613 8.24601 2.62306 8.24012 2.61881C8.23716 2.61668 8.23381 2.61423 8.23006 2.61143C8.22819 2.61002 8.22621 2.60853 8.22412 2.60693C8.22308 2.60614 8.22201 2.60531 8.22091 2.60447C8.22036 2.60405 8.21981 2.60362 8.21924 2.60318C8.21896 2.60296 8.21868 2.60274 8.21839 2.60252C8.21825 2.60241 8.21804 2.60224 8.21796 2.60219C8.21775 2.60202 8.21753 2.60185 8.83147 1.8125ZM8.43132 0.651812L5.98489 0.669669L5.99949 2.66962L8.44592 2.65176L8.43132 0.651812ZM5.99219 0.669642C5.64738 0.669642 5.35923 0.749274 5.13034 0.870078C5.01869 0.929007 4.92806 0.994089 4.85643 1.05595C4.82074 1.08677 4.78999 1.1166 4.76379 1.14425C4.7507 1.15807 4.73873 1.17136 4.72785 1.18397C4.72241 1.19027 4.71724 1.19641 4.71233 1.20236C4.70988 1.20533 4.70749 1.20826 4.70516 1.21114C4.704 1.21258 4.70285 1.21401 4.70172 1.21543C4.70116 1.21614 4.70059 1.21684 4.70004 1.21754C4.69976 1.21789 4.69934 1.21842 4.6992 1.21859C4.69879 1.21912 4.69838 1.21964 5.48326 1.83928C6.26814 2.45893 6.26773 2.45945 6.26732 2.45997C6.26718 2.46015 6.26677 2.46067 6.26649 2.46101C6.26594 2.4617 6.2654 2.46239 6.26485 2.46308C6.26375 2.46446 6.26265 2.46582 6.26155 2.46718C6.25936 2.4699 6.25717 2.47259 6.25498 2.47524C6.2506 2.48055 6.24622 2.48573 6.24186 2.49079C6.23312 2.50091 6.2244 2.51056 6.2157 2.51974C6.19829 2.53811 6.18093 2.55469 6.16366 2.5696C6.12886 2.59966 6.09515 2.62233 6.06386 2.63885C5.99568 2.67483 5.962 2.66964 5.99219 2.66964V0.669642ZM5.48326 1.83928C4.75372 1.15534 4.75322 1.15588 4.75272 1.15641C4.75255 1.15659 4.75205 1.15713 4.75172 1.15749C4.75104 1.15821 4.75037 1.15893 4.74969 1.15966C4.74834 1.16113 4.74698 1.16261 4.7456 1.16411C4.74286 1.16711 4.74007 1.17019 4.73724 1.17336C4.73158 1.17969 4.72576 1.18635 4.71981 1.19336C4.70791 1.20736 4.69543 1.22276 4.6826 1.23958C4.65697 1.27319 4.62968 1.31281 4.60269 1.35861C4.54852 1.45057 4.49563 1.56747 4.4609 1.70853C4.38764 2.00617 4.41324 2.33613 4.55375 2.66734L6.39491 1.88623C6.41042 1.9228 6.44049 2.03401 6.40293 2.18656C6.38607 2.25507 6.35885 2.31785 6.32588 2.37381C6.3095 2.40161 6.29169 2.42777 6.2729 2.45241C6.26348 2.46476 6.25376 2.4768 6.24376 2.48857C6.23876 2.49445 6.23368 2.50028 6.22852 2.50605C6.22594 2.50894 6.22334 2.51181 6.22072 2.51467C6.21941 2.5161 6.2181 2.51753 6.21677 2.51896C6.21611 2.51967 6.21545 2.52038 6.21479 2.52109C6.21446 2.52145 6.21396 2.52198 6.21379 2.52216C6.2133 2.52269 6.2128 2.52323 5.48326 1.83928ZM4.55415 2.66827C5.53954 4.9844 6.59699 6.72972 7.41515 7.90335C7.82427 8.49022 8.17378 8.93447 8.42492 9.23604C8.5505 9.38685 8.65153 9.50203 8.72317 9.58158C8.759 9.62136 8.78748 9.65224 8.80801 9.67422C8.81828 9.68521 8.82657 9.69398 8.83279 9.70052C8.8359 9.70379 8.8385 9.7065 8.84057 9.70866C8.8416 9.70974 8.84251 9.71068 8.84328 9.71148C8.84367 9.71188 8.84402 9.71225 8.84434 9.71258C8.8445 9.71275 8.84471 9.71297 8.84479 9.71305C8.845 9.71326 8.8452 9.71347 9.56362 9.01786C10.282 8.32225 10.2822 8.32243 10.2824 8.32261C10.2824 8.32266 10.2826 8.32283 10.2827 8.32293C10.2829 8.32312 10.283 8.32328 10.2832 8.32341C10.2834 8.32366 10.2835 8.32378 10.2835 8.32376C10.2835 8.32372 10.2829 8.32314 10.2818 8.32201C10.2797 8.31976 10.2755 8.31535 10.2694 8.30876C10.257 8.29559 10.2369 8.27374 10.2094 8.24323C10.1544 8.18219 10.0703 8.08651 9.9618 7.9562C9.74474 7.69555 9.43019 7.29661 9.05583 6.7596C8.30703 5.68546 7.31984 4.06024 6.39451 1.8853L4.55415 2.66827ZM9.56362 9.01786C8.84118 9.70929 8.84139 9.70951 8.84161 9.70974C8.84169 9.70983 8.84192 9.71006 8.84208 9.71024C8.84242 9.71058 8.84278 9.71096 8.84318 9.71137C8.84397 9.7122 8.84488 9.71315 8.84592 9.71422C8.848 9.71637 8.85057 9.71903 8.85364 9.72217C8.85977 9.72845 8.86785 9.73668 8.87785 9.74672C8.89783 9.76679 8.92549 9.79415 8.96038 9.82772C9.03011 9.89477 9.12919 9.98701 9.25424 10.0956C9.50321 10.3119 9.86104 10.5983 10.3002 10.881C11.1548 11.4312 12.4364 12.0445 13.8767 11.9534L13.7505 9.95735C12.9319 10.0091 12.0885 9.65363 11.3828 9.19935C11.0419 8.97985 10.7607 8.75506 10.5658 8.58573C10.4689 8.50155 10.3948 8.43238 10.3468 8.38622C10.3228 8.36318 10.3055 8.34599 10.2952 8.33566C10.2901 8.33049 10.2867 8.32706 10.2852 8.32547C10.2844 8.32468 10.2841 8.32435 10.2842 8.32451C10.2843 8.32458 10.2845 8.32478 10.2848 8.3251C10.2849 8.32526 10.2851 8.32545 10.2853 8.32567C10.2854 8.32578 10.2856 8.32597 10.2857 8.32602C10.2859 8.32622 10.2861 8.32642 9.56362 9.01786ZM13.8136 11.9554H14.8404V9.95536H13.8136V11.9554ZM14.9258 11.9517C15.2506 11.9239 15.5091 11.82 15.6943 11.7131C15.7861 11.66 15.8602 11.6061 15.9169 11.5598C15.9453 11.5366 15.9696 11.5149 15.99 11.4959C16.0001 11.4863 16.0094 11.4774 16.0176 11.4692C16.0217 11.4651 16.0256 11.4611 16.0293 11.4574C16.0311 11.4555 16.0329 11.4537 16.0346 11.4519C16.0355 11.451 16.0363 11.4501 16.0371 11.4492C16.0375 11.4488 16.038 11.4484 16.0384 11.4479C16.0386 11.4477 16.0389 11.4474 16.039 11.4473C16.0393 11.447 16.0396 11.4467 15.3136 10.7589C14.5877 10.0712 14.588 10.0709 14.5883 10.0706C14.5884 10.0704 14.5887 10.0701 14.5889 10.0699C14.5893 10.0695 14.5897 10.0691 14.59 10.0687C14.5908 10.0679 14.5916 10.067 14.5924 10.0662C14.594 10.0646 14.5955 10.063 14.597 10.0615C14.6 10.0584 14.603 10.0554 14.6059 10.0525C14.6116 10.0468 14.6171 10.0415 14.6222 10.0367C14.6326 10.027 14.6419 10.0188 14.6504 10.0119C14.6671 9.99822 14.6815 9.9884 14.6941 9.98112C14.7208 9.96571 14.7427 9.96007 14.755 9.95901L14.9258 11.9517ZM15.3136 10.7589C16.061 11.4233 16.0613 11.4229 16.0616 11.4226C16.0617 11.4225 16.0621 11.4221 16.0623 11.4219C16.0627 11.4214 16.0631 11.421 16.0635 11.4205C16.0643 11.4196 16.0652 11.4186 16.066 11.4176C16.0677 11.4157 16.0695 11.4137 16.0713 11.4116C16.0749 11.4074 16.0786 11.403 16.0825 11.3984C16.0902 11.3892 16.0985 11.3789 16.1073 11.3677C16.1249 11.3452 16.1445 11.3187 16.1651 11.288C16.2063 11.2268 16.2528 11.1479 16.2961 11.0516C16.3837 10.8565 16.4568 10.5927 16.4471 10.2733L14.448 10.3339C14.4473 10.3091 14.4533 10.273 14.4718 10.2319C14.4804 10.2126 14.4918 10.1923 14.5065 10.1704C14.5139 10.1594 14.5224 10.1477 14.5322 10.1352C14.5371 10.1289 14.5423 10.1224 14.548 10.1157C14.5508 10.1123 14.5537 10.1089 14.5568 10.1053C14.5583 10.1036 14.5598 10.1018 14.5614 10.1C14.5622 10.0991 14.563 10.0982 14.5638 10.0973C14.5642 10.0968 14.5646 10.0964 14.565 10.0959C14.5652 10.0957 14.5655 10.0954 14.5656 10.0953C14.5659 10.0949 14.5662 10.0946 15.3136 10.7589ZM16.4475 10.2906C16.4406 9.7602 16.5612 9.58728 16.5687 9.57669C16.5749 9.56801 16.5669 9.58183 16.5342 9.60407C16.5186 9.61462 16.4985 9.62643 16.4727 9.63864C16.4598 9.64474 16.4455 9.65095 16.4296 9.65716C16.4216 9.66027 16.4133 9.66338 16.4045 9.66649C16.4001 9.66805 16.3956 9.6696 16.391 9.67115C16.3887 9.67192 16.3864 9.6727 16.384 9.67347C16.3828 9.67386 16.3816 9.67425 16.3804 9.67463C16.3798 9.67483 16.3789 9.67512 16.3786 9.67521C16.3777 9.6755 16.3768 9.67579 16.0725 8.72321C15.7682 7.77064 15.7673 7.77093 15.7664 7.77122C15.7661 7.77132 15.7652 7.77162 15.7646 7.77181C15.7634 7.77221 15.7621 7.77262 15.7608 7.77303C15.7583 7.77386 15.7558 7.77471 15.7532 7.77559C15.7479 7.77735 15.7425 7.77921 15.7369 7.7812C15.7257 7.78517 15.7137 7.7896 15.7011 7.79455C15.6758 7.80444 15.6477 7.8164 15.6173 7.8308C15.5564 7.85962 15.4861 7.89822 15.4106 7.9495C15.2579 8.05321 15.0903 8.20431 14.938 8.41885C14.6285 8.85469 14.4367 9.47194 14.4476 10.3166L16.4475 10.2906ZM16.3724 9.67721C16.0754 9.77053 15.9021 9.60799 15.996 9.67428C16.072 9.72795 16.1929 9.84302 16.3837 10.0559C16.5315 10.2208 16.7936 10.5292 16.9923 10.7447C17.2122 10.983 17.4836 11.2551 17.7917 11.4669L18.9248 9.81882C18.8043 9.73599 18.6539 9.59622 18.4625 9.38867C18.2499 9.15826 18.1113 8.98684 17.873 8.72092C17.6776 8.50296 17.4269 8.23633 17.1497 8.04056C16.8903 7.85742 16.3822 7.57768 15.7727 7.76922L16.3724 9.67721ZM18.3583 10.6429C17.7932 11.4679 17.7934 11.468 17.7935 11.4681C17.7936 11.4682 17.7938 11.4683 17.7939 11.4684C17.7942 11.4686 17.7945 11.4688 17.7948 11.469C17.7953 11.4694 17.796 11.4698 17.7966 11.4702C17.7979 11.4711 17.7994 11.4721 17.8011 11.4732C17.8044 11.4755 17.8083 11.4781 17.813 11.4812C17.8222 11.4873 17.8341 11.4951 17.8483 11.5042C17.8768 11.5224 17.9153 11.5463 17.9621 11.5738C18.0544 11.6279 18.1855 11.6995 18.3407 11.7682C18.6017 11.8838 19.1317 12.0848 19.6972 11.9717L19.305 10.0105C19.3604 9.99942 19.3741 10.0109 19.326 10.0005C19.2824 9.99114 19.2219 9.97109 19.1504 9.93942C19.0813 9.9088 19.0187 9.8749 18.9735 9.84838C18.9515 9.83549 18.9352 9.82531 18.9261 9.81948C18.9216 9.81659 18.919 9.81485 18.9184 9.81449C18.9182 9.8143 18.9184 9.81447 18.9192 9.81502C18.9196 9.81529 18.9202 9.81566 18.9209 9.81613C18.9212 9.81636 18.9216 9.81662 18.922 9.8169C18.9222 9.81704 18.9224 9.81719 18.9226 9.81735C18.9228 9.81742 18.9229 9.81754 18.923 9.81758C18.9232 9.8177 18.9233 9.81783 18.3583 10.6429ZM19.5167 11.9909L21.8025 11.9552L21.7712 9.95548L19.4855 9.99119L19.5167 11.9909ZM21.7942 11.9553C22.213 11.9522 22.6654 11.8648 23.0282 11.5674C23.4228 11.2441 23.5449 10.8128 23.5553 10.4786C23.5649 10.1706 23.4851 9.90721 23.4291 9.75582C23.3984 9.67285 23.3672 9.60359 23.3427 9.55301C23.3303 9.52741 23.3192 9.50576 23.3101 9.48862C23.3055 9.48002 23.3014 9.47249 23.2979 9.4661C23.2961 9.4629 23.2945 9.45998 23.293 9.45734C23.2923 9.45602 23.2916 9.45478 23.2909 9.4536C23.2906 9.45301 23.2902 9.45244 23.2899 9.45189C23.2898 9.45162 23.2895 9.45121 23.2895 9.45108C23.2892 9.45068 23.289 9.45029 22.4208 9.94643C21.5525 10.4426 21.5523 10.4422 21.5521 10.4418C21.552 10.4417 21.5518 10.4413 21.5517 10.4411C21.5514 10.4406 21.5511 10.4401 21.5508 10.4396C21.5503 10.4387 21.5498 10.4378 21.5493 10.437C21.5484 10.4353 21.5476 10.4338 21.5469 10.4325C21.5454 10.4299 21.5444 10.428 21.5437 10.4267C21.5424 10.4242 21.5424 10.4241 21.5432 10.4258C21.5452 10.43 21.5493 10.4389 21.5533 10.4498C21.5668 10.4862 21.5545 10.4734 21.5563 10.4164C21.5574 10.3809 21.5646 10.3158 21.5984 10.2373C21.6344 10.1535 21.691 10.0775 21.7605 10.0205C21.8916 9.91313 21.9633 9.95402 21.7794 9.95538L21.7942 11.9553ZM23.2949 9.4608C23.3074 9.4832 23.2501 9.37324 23.1814 9.26123C23.1077 9.14082 23.0046 8.98739 22.8597 8.7989C22.5708 8.42316 22.1161 7.90918 21.3959 7.24042L20.035 8.70601C20.6897 9.31403 21.0654 9.74649 21.2742 10.0181C21.4727 10.2762 21.5235 10.3906 21.5466 10.4321L23.2949 9.4608ZM21.3969 7.2414C21.0071 6.87837 20.8309 6.71186 20.7383 6.59162C20.691 6.53012 20.7924 6.65382 20.754 6.83546C20.7456 6.87514 20.7526 6.80646 21.0036 6.46524C21.253 6.12624 21.5313 5.78553 22.0057 5.15456L20.4072 3.95258C20.0156 4.47339 19.6209 4.96974 19.3926 5.28002C19.166 5.58807 18.8906 5.98089 18.7974 6.42124C18.6741 7.00355 18.8883 7.46709 19.1534 7.81156C19.3734 8.09729 19.7094 8.40288 20.0339 8.70503L21.3969 7.2414ZM22.0059 5.15439C22.5466 4.43487 22.9553 3.81582 23.214 3.30355C23.343 3.04822 23.4517 2.78659 23.5134 2.52984C23.5714 2.28869 23.6153 1.94143 23.4849 1.58499L21.6066 2.27215C21.5432 2.09875 21.5848 1.9959 21.5689 2.06223C21.5567 2.11296 21.5197 2.22187 21.4288 2.40181C21.2479 2.76007 20.9199 3.27049 20.4071 3.95276L22.0059 5.15439Z" fill="black"/>
</g>
<defs>
<filter id="filter0_d" x="0.420959" y="0.220947" width="27.149" height="19.7841" filterUnits="userSpaceOnUse" color-interpolation-filters="sRGB">
<feFlood flood-opacity="0" result="BackgroundImageFix"/>
<feColorMatrix in="SourceAlpha" type="matrix" values="0 0 0 0 0 0 0 0 0 0 0 0 0 0 0 0 0 0 127 0"/>
<feOffset dy="4"/>
<feGaussianBlur stdDeviation="2"/>
<feColorMatrix type="matrix" values="0 0 0 0 0 0 0 0 0 0 0 0 0 0 0 0 0 0 0.25 0"/>
<feBlend mode="normal" in2="BackgroundImageFix" result="effect1_dropShadow"/>
<feBlend mode="normal" in="SourceGraphic" in2="effect1_dropShadow" result="shape"/>
</filter>
</defs>
</svg>
